# https://github.com/mikedh/trimesh
mtllib material.mtl
usemtl material_0
v -0.11525729 -0.13452731 -0.02792051
v -0.15487921 -0.50000000 -0.00000000
v -0.50000000 -0.50000000 -0.00000000
v -0.50000000 -0.13452733 -0.00000000
v -0.15487921 0.49999997 -0.00000003
v -0.50000000 0.50000000 -0.00000000
v 0.00000000 -0.50000000 0.50000000
v -0.00000001 -0.50000000 0.15487927
v 0.01198029 -0.13452733 0.29242697
v 0.00000000 -0.13452733 0.50000000
v -0.00000001 0.50000000 0.15487927
v 0.00000000 0.50000000 0.50000000
v -0.00000001 -0.50000000 0.15487927
v 0.01945003 -0.13452733 0.10938713
v -0.00000001 0.50000000 0.15487927
vn 0.37998596 -0.01910459 -0.92477185
vn 0.34760582 -0.08709983 -0.93356121
vn -0.03817866 -0.03607288 -0.99859613
vn -0.03820917 -0.00762963 -0.99923706
vn 0.35636464 0.05084383 -0.93295085
vn -0.03820917 0.02078310 -0.99902338
vn 0.99954224 -0.02044740 0.02163762
vn 0.93548387 -0.08160649 -0.34372997
vn 0.99954224 -0.00619526 0.02948088
vn 0.99972534 -0.00433363 0.02166814
vn 0.93346965 0.04687643 -0.35554063
vn 0.99969482 0.01178014 0.02166814
vn 0.93548387 -0.08160649 -0.34372997
vn 0.92516863 -0.02059999 -0.37897885
vn 0.93346965 0.04687643 -0.35554063
vt 0.59136820 0.54116452
vt 0.50000000 0.53749079
vt 0.50000000 0.50000000
vt 0.59136820 0.50000000
vt 0.65863186 0.51869309
vt 0.65863186 0.50000000
vt 0.50000000 0.62500000
vt 0.50000000 0.59796065
vt 0.59136820 0.59756535
vt 0.59136820 0.62500000
vt 0.65863186 0.60229897
vt 0.65863186 0.62500000
vt 0.50000000 0.56211406
vt 0.59136820 0.55652046
vt 0.65863186 0.55460393
f 1/1/1 2/2/2 3/3/3
f 1/1/1 3/3/3 4/4/4
f 5/5/5 1/1/1 4/4/4
f 5/5/5 4/4/4 6/6/6
f 7/7/7 8/8/8 9/9/9
f 10/10/10 7/7/7 9/9/9
f 10/10/10 9/9/9 11/11/11
f 12/12/12 10/10/10 11/11/11
f 13/13/13 14/14/14 9/9/9
f 14/14/14 11/11/11 9/9/9
f 13/13/13 2/2/2 1/1/1
f 14/14/14 13/13/13 1/1/1
f 14/14/14 1/1/1 5/5/5
f 15/15/15 14/14/14 5/5/5

