# https://github.com/mikedh/trimesh
mtllib material.mtl
usemtl material_0
v 0.00000864 -0.01504236 0.01557171
v 0.15220208 -0.01504237 -0.01344752
v 0.50000006 -0.25383356 -0.39999995
v -0.49999133 -0.25383356 -0.40000001
v -0.15487921 -0.00550713 -0.00000000
v 0.50000006 -0.25383356 -0.39999995
v 0.28393361 -0.01504236 -0.02525962
v 0.50000000 -0.01504239 -0.02963039
v -0.49999136 -0.01504236 -0.02963046
v -0.15487921 -0.00550713 -0.00000000
v -0.49999133 -0.25383356 -0.40000001
v 0.28393361 -0.01504236 -0.02525962
v 0.50000006 -0.25383356 -0.39999995
vn -0.00418104 0.96191287 -0.27323222
vn -0.07821894 0.92098761 -0.38157293
vn -0.01391644 0.84502703 -0.53450119
vn 0.01773125 0.85192418 -0.52330089
vn 0.22321238 0.59550768 -0.77169102
vn -0.01391644 0.84502703 -0.53450119
vn -0.02801599 0.91631824 -0.39945677
vn -0.00686666 0.91723382 -0.39820552
vn 0.02328562 0.84020507 -0.54170352
vn 0.22321238 0.59550768 -0.77169102
vn 0.01773125 0.85192418 -0.52330089
vn -0.02801599 0.91631824 -0.39945677
vn -0.01391644 0.84502703 -0.53450119
vt 0.37500000 0.56250000
vt 0.37500000 0.58983231
vt 0.37500000 0.56250000
vt 0.37500000 0.53125000
vt 0.37499997 0.53926158
vt 0.37500000 0.59375000
vt 0.37500000 0.59766656
vt 0.37500000 0.62500000
vt 0.37500000 0.50000000
vt 0.37500000 0.52322984
vt 0.37500000 0.50000000
vt 0.37500000 0.59292889
vt 0.37500000 0.59213966
f 1/1/1 2/2/2 3/3/3
f 1/1/1 3/3/3 4/4/4
f 1/1/1 4/4/4 5/5/5
f 6/6/6 7/7/7 8/8/8
f 9/9/9 10/10/10 11/11/11
f 2/2/2 12/12/12 13/13/13

