# https://github.com/mikedh/trimesh
mtllib material.mtl
usemtl material_0
v -0.15487921 0.03408647 0.00000001
v -0.12725279 -0.01504236 -0.03088776
v -0.50000000 0.00000000 -0.03408643
v -0.50000000 0.03408647 0.00000004
v 0.00000001 -0.00550713 0.15487921
v -0.50000870 -0.00000001 -0.49999997
v -0.03337940 0.00000000 -0.28812233
v -0.03323002 0.00000000 -0.50000000
v -0.50000870 -0.00000001 -0.49999997
v -0.12725279 -0.01504236 -0.03088776
v -0.06223829 0.00000000 -0.15891393
v -0.01557171 -0.01504236 -0.00000864
v 0.01344751 -0.01504237 -0.15220208
v -0.50000870 -0.00000001 -0.49999997
v -0.06223829 0.00000000 -0.15891393
v 0.02525960 -0.01504236 -0.28393361
v 0.02963035 -0.01504239 -0.50000000
v -0.50000000 0.00000000 -0.03408643
v 0.00000001 -0.00550713 0.15487921
vn 0.36802271 0.36805323 -0.85384685
vn 0.15970336 0.96044803 -0.22797327
vn 0.03149510 0.89822078 -0.43839839
vn 0.00869778 0.32740256 -0.94482255
vn 0.77169102 0.59550768 -0.22321238
vn 0.00732444 0.99987793 0.01269570
vn 0.12253182 0.99240088 0.00991852
vn 0.12106693 0.99261451 0.00125126
vn 0.00732444 0.99987793 0.01269570
vn 0.15970336 0.96044803 -0.22797327
vn 0.05157628 0.99716181 0.05475020
vn 0.27323222 0.96191287 0.00418104
vn 0.38157293 0.92098761 0.07821894
vn 0.00732444 0.99987793 0.01269570
vn 0.05157628 0.99716181 0.05475020
vn 0.39945677 0.91631824 0.02801599
vn 0.39820552 0.91723382 0.00686666
vn 0.03149510 0.89822078 -0.43839839
vn 0.77169102 0.59550768 -0.22321238
vt 0.59136820 0.50000000
vt 0.59136820 0.50000000
vt 0.59136820 0.50000000
vt 0.59136820 0.50000000
vt 0.59136820 0.50000000
vt 0.37500000 0.62500000
vt 0.37500000 0.59766662
vt 0.37500000 0.62500000
vt 0.37500000 0.59375000
vt 0.37500000 0.56250000
vt 0.37500000 0.58983225
vt 0.37500000 0.56250000
vt 0.37500000 0.58983225
vt 0.37500000 0.59569681
vt 0.37500000 0.59375000
vt 0.37500000 0.59766656
vt 0.37500000 0.62500000
vt 0.37500000 0.59375000
vt 0.37500000 0.56250000
f 1/1/1 2/2/2 3/3/3
f 1/1/1 3/3/3 4/4/4
f 5/5/5 2/2/2 1/1/1
f 6/6/6 7/7/7 8/8/8
f 9/9/9 10/10/10 11/11/11
f 10/10/10 12/12/12 13/13/13
f 10/10/10 13/13/13 11/11/11
f 7/7/7 14/14/14 15/15/15
f 11/11/11 13/13/13 16/16/16
f 11/11/11 16/16/16 7/7/7
f 16/16/16 17/17/17 8/8/8
f 7/7/7 16/16/16 8/8/8
f 9/9/9 18/18/18 10/10/10
f 10/10/10 19/19/19 12/12/12

