# https://github.com/mikedh/trimesh
mtllib material.mtl
usemtl material_0
v 0.50000000 -0.25383356 -0.39999992
v 0.35708737 -0.01504236 -0.01691258
v 0.50000882 -0.01504236 -0.02963036
v 0.50000000 -0.25383356 -0.39999992
v -0.01781061 -0.01504239 -0.21292406
v -0.01434237 -0.01504239 -0.07936037
v 0.03888464 -0.01504236 -0.37335420
v -0.01781061 -0.01504239 -0.21292406
v 0.50000000 -0.25383356 -0.39999992
v 0.02963042 -0.01504236 -0.49999136
v 0.40000001 -0.25383356 -0.50000000
v -0.01434237 -0.01504239 -0.07936037
v 0.14476043 -0.01504237 0.00662214
v 0.35708737 -0.01504236 -0.01691258
v 0.50000000 -0.25383356 -0.39999992
vn 0.27234718 0.89407027 -0.35554063
vn -0.03915525 0.91644031 -0.39817500
vn -0.03482162 0.91470075 -0.40256965
vn 0.27234718 0.89407027 -0.35554063
vn 0.32441175 0.94485307 0.04428236
vn 0.22254097 0.96563613 -0.13397625
vn 0.38282418 0.92303234 0.03787347
vn 0.32441175 0.94485307 0.04428236
vn 0.27234718 0.89407027 -0.35554063
vn 0.38608965 0.92202520 -0.02819910
vn 0.42381054 0.83144629 -0.35923338
vn 0.22254097 0.96563613 -0.13397625
vn 0.06707969 0.94827116 -0.31025118
vn -0.03915525 0.91644031 -0.39817500
vn 0.27234718 0.89407027 -0.35554063
vt 0.37500000 0.55876994
vt 0.37500000 0.56250000
vt 0.37500000 0.56250000
vt 0.37500000 0.53125000
vt 0.37499997 0.53926158
vt 0.37499997 0.54382837
vt 0.37500000 0.52322984
vt 0.37500000 0.53925979
vt 0.37500000 0.53125000
vt 0.37500000 0.50000000
vt 0.37500000 0.50000000
vt 0.37500000 0.54382831
vt 0.37500000 0.55947369
vt 0.37500000 0.56984836
vt 0.37500000 0.50000000
f 1/1/1 2/2/2 3/3/3
f 4/4/4 5/5/5 6/6/6
f 7/7/7 8/8/8 9/9/9
f 10/10/10 7/7/7 11/11/11
f 12/12/12 13/13/13 1/1/1
f 13/13/13 14/14/14 1/1/1
f 11/11/11 7/7/7 15/15/15

