# https://github.com/mikedh/trimesh
mtllib material.mtl
usemtl material_0
v -0.13452733 0.00000000 0.50000000
v 0.00000000 -0.13452733 0.50000000
v -0.16659269 0.00000000 0.39777899
v -0.15487921 -0.13452733 -0.00000000
v -0.29051754 0.00000000 0.15498829
v -0.19389142 0.00000000 0.17899990
v -0.50000000 -0.13452733 -0.00000000
v -0.40571424 0.00000000 0.12307656
v 0.00000000 -0.13452733 0.15487921
v 0.00000000 -0.50000000 0.15487921
v -0.15487921 -0.50000000 -0.00000000
v -0.50000000 -0.50000000 -0.00000000
v 0.00000000 -0.50000000 0.50000000
v -0.13452733 0.00000000 0.28992116
v -0.50000000 0.00000000 0.13452733
vn 0.43794060 0.88842434 -0.13736381
vn 0.91647083 0.39973143 -0.01586962
vn 0.30423903 0.95239115 -0.01852474
vn 0.36701560 0.39854121 -0.84047973
vn 0.04437391 0.93820000 -0.34318063
vn 0.22943816 0.92294079 -0.30906093
vn 0.00390637 0.38944671 -0.92101812
vn 0.00094607 0.90987885 -0.41480759
vn 0.84731591 0.39982298 -0.34946746
vn 0.92385632 0.00000000 -0.38267159
vn 0.38267159 0.00000000 -0.92385632
vn 0.00000000 0.00000000 -1.00000000
vn 1.00000000 0.00000000 -0.00000000
vn 0.39707634 0.91482282 -0.07327494
vn -0.04330577 0.93319499 -0.35666981
vt 0.65863186 0.50000000
vt 0.59136820 0.50000000
vt 0.65863186 0.50000000
vt 0.59136820 0.50000000
vt 0.65863186 0.50000000
vt 0.65863186 0.50000000
vt 0.59136820 0.50000000
vt 0.65863192 0.50000000
vt 0.59136820 0.50000000
vt 0.59136820 0.50000000
vt 0.59136820 0.50000000
vt 0.59136820 0.50000000
vt 0.59136820 0.50000000
vt 0.65863186 0.50000000
vt 0.65863186 0.50000000
f 1/1/1 2/2/2 3/3/3
f 4/4/4 5/5/5 6/6/6
f 5/5/5 4/4/4 7/7/7
f 5/5/5 7/7/7 8/8/8
f 9/9/9 10/10/10 11/11/11
f 9/9/9 11/11/11 4/4/4
f 4/4/4 11/11/11 12/12/12
f 4/4/4 12/12/12 7/7/7
f 2/2/2 13/13/13 10/10/10
f 2/2/2 10/10/10 9/9/9
f 3/3/3 2/2/2 9/9/9
f 3/3/3 9/9/9 14/14/14
f 8/8/8 7/7/7 15/15/15
f 14/14/14 9/9/9 4/4/4
f 14/14/14 4/4/4 6/6/6

