# https://github.com/mikedh/trimesh
mtllib material.mtl
usemtl material_0
v -0.01557171 -0.01504236 0.00000864
v 0.01596665 -0.01504236 0.21866661
v 0.39999998 -0.25383356 0.50000000
v 0.39999998 -0.25383356 -0.49999136
v -0.01195538 -0.01504239 -0.18589872
v 0.39999998 -0.25383356 0.50000000
v 0.00328946 -0.01504236 0.28134143
v 0.02963042 -0.01504239 0.50000000
v 0.03319645 -0.01504236 -0.31415272
v -0.01195538 -0.01504239 -0.18589872
v 0.39999998 -0.25383356 -0.49999136
v 0.02963042 -0.01504236 -0.49999136
v 0.39999998 -0.25383356 -0.49999136
v 0.00328946 -0.01504236 0.28134143
v 0.39999998 -0.25383356 0.50000000
vn 0.37150180 0.92828149 -0.01593066
vn 0.40641499 0.91363263 -0.00875881
vn 0.52125615 0.85305339 -0.02362133
vn 0.52494889 0.85076451 0.02374340
vn 0.37183753 0.92687768 0.05084383
vn 0.52125615 0.85305339 -0.02362133
vn 0.35737175 0.93365276 0.02322458
vn 0.40314952 0.91381574 -0.04855495
vn 0.43726921 0.89452803 0.09256264
vn 0.37183753 0.92687768 0.05084383
vn 0.52494889 0.85076451 0.02374340
vn 0.39112520 0.92028564 -0.00747703
vn 0.52494889 0.85076451 0.02374340
vn 0.35737175 0.93365276 0.02322458
vn 0.52125615 0.85305339 -0.02362133
vt 0.37500000 0.56250000
vt 0.37500000 0.58983231
vt 0.37500000 0.56250000
vt 0.37500000 0.53125000
vt 0.37499997 0.53926158
vt 0.37500000 0.59375000
vt 0.37500000 0.59766656
vt 0.37500000 0.62500000
vt 0.37500000 0.52322984
vt 0.37500000 0.53925979
vt 0.37500000 0.53125000
vt 0.37500000 0.50000000
vt 0.37500000 0.50000000
vt 0.37500000 0.59292889
vt 0.37500000 0.59213966
f 1/1/1 2/2/2 3/3/3
f 1/1/1 3/3/3 4/4/4
f 1/1/1 4/4/4 5/5/5
f 6/6/6 7/7/7 8/8/8
f 9/9/9 10/10/10 11/11/11
f 12/12/12 9/9/9 13/13/13
f 2/2/2 14/14/14 15/15/15

