# https://github.com/mikedh/trimesh
mtllib material.mtl
usemtl material_0
v -0.11951791 0.00000000 -0.05466697
v -0.50000000 0.00000000 -0.50000000
v -0.50000000 0.00000000 0.50000000
v -0.11951791 0.00000000 0.30464527
v 0.50000000 0.00000000 0.50000000
v 0.30511683 0.00000000 0.30464527
v 0.30511683 0.00000000 -0.05466697
v 0.50000000 0.00000000 -0.50000000
v 0.50000000 0.00000000 0.50000000
v 0.50000000 0.00000000 -0.50000000
v 0.43504578 -0.00000006 0.00879353
v 0.43504578 -0.00000005 0.16739337
v 0.30511683 -0.00000005 0.16739336
v 0.30511683 0.00000000 0.30464527
v 0.50000000 0.00000000 -0.50000000
v 0.30511683 -0.00000006 0.00879352
vn -0.26123846 0.92876983 -0.26285592
vn 0.00000000 1.00000000 -0.00000000
vn 0.00000000 1.00000000 -0.00000000
vn -0.26123846 0.92876983 0.26285592
vn 0.00000000 1.00000000 -0.00000000
vn 0.26862392 0.91830194 0.29068881
vn 0.26862392 0.91830194 -0.29068881
vn 0.00000000 1.00000000 -0.00000000
vn 0.00000000 1.00000000 -0.00000000
vn 0.00000000 1.00000000 -0.00000000
vn 0.28495133 0.92141485 -0.26407665
vn 0.28495133 0.92141485 0.26404613
vn 0.57734919 0.57734919 0.57734919
vn 0.26862392 0.91830194 0.29068881
vn 0.00000000 1.00000000 -0.00000000
vn 0.57734919 0.57734919 -0.57734919
vt 0.87500000 0.52436042
vt 0.87500000 0.50000000
vt 0.87500000 0.62500000
vt 0.87499994 0.60063958
vt 0.87500000 0.62500000
vt 0.87499994 0.60063952
vt 0.87499994 0.52436036
vt 0.87500000 0.50000000
vt 0.87500000 0.58810163
vt 0.87499988 0.53752488
vt 0.87499988 0.53752488
vt 0.87500000 0.58810163
vt 0.87500000 0.58810163
vt 0.87500000 0.58810163
vt 0.87499994 0.52436036
vt 0.87499988 0.53752488
f 1/1/1 2/2/2 3/3/3
f 4/4/4 1/1/1 3/3/3
f 5/5/5 6/6/6 4/4/4
f 5/5/5 4/4/4 3/3/3
f 7/7/7 8/8/8 2/2/2
f 7/7/7 2/2/2 1/1/1
f 9/9/9 10/10/10 11/11/11
f 9/9/9 11/11/11 12/12/12
f 12/12/12 13/13/13 14/14/14
f 9/9/9 12/12/12 14/14/14
f 11/11/11 15/15/15 7/7/7
f 11/11/11 7/7/7 16/16/16

