# https://github.com/mikedh/trimesh
mtllib material.mtl
usemtl material_0
v -0.01557171 -0.01504236 -0.00000864
v 0.39999992 -0.25383356 -0.50000012
v 0.01344751 -0.01504237 -0.15220208
v 0.40000004 -0.25383356 0.49999130
v 0.00000001 -0.00550713 0.15487921
v 0.39999992 -0.25383356 -0.50000012
v 0.02963035 -0.01504239 -0.50000000
v 0.02525960 -0.01504236 -0.28393361
v 0.02963050 -0.01504236 0.49999136
v 0.40000004 -0.25383356 0.49999130
v 0.00000001 -0.00550713 0.15487921
v 0.39999992 -0.25383356 -0.50000012
v 0.02525960 -0.01504236 -0.28393361
vn 0.27323222 0.96191287 0.00418104
vn 0.53450119 0.84502703 0.01391644
vn 0.38157293 0.92098761 0.07821894
vn 0.52330089 0.85192418 -0.01773125
vn 0.77169102 0.59550768 -0.22321238
vn 0.53450119 0.84502703 0.01391644
vn 0.39820552 0.91723382 0.00686666
vn 0.39945677 0.91631824 0.02801599
vn 0.54170352 0.84020507 -0.02328562
vn 0.52330089 0.85192418 -0.01773125
vn 0.77169102 0.59550768 -0.22321238
vn 0.53450119 0.84502703 0.01391644
vn 0.39945677 0.91631824 0.02801599
vt 0.37500000 0.56250000
vt 0.37500000 0.56250000
vt 0.37500000 0.58983231
vt 0.37500000 0.53125000
vt 0.37499997 0.53926158
vt 0.37500000 0.59375000
vt 0.37500000 0.62500000
vt 0.37500000 0.59766656
vt 0.37500000 0.50000000
vt 0.37500000 0.50000000
vt 0.37500000 0.52322984
vt 0.37500000 0.59213966
vt 0.37500000 0.59292889
f 1/1/1 2/2/2 3/3/3
f 4/4/4 2/2/2 1/1/1
f 5/5/5 4/4/4 1/1/1
f 6/6/6 7/7/7 8/8/8
f 9/9/9 10/10/10 11/11/11
f 3/3/3 12/12/12 13/13/13

