# https://github.com/mikedh/trimesh
mtllib material.mtl
usemtl material_0
v 0.01206422 -0.01504236 0.40228838
v 0.02963042 -0.01504239 0.50000000
v 0.39999998 -0.25383356 0.50000000
v 0.01822311 -0.01504238 0.25651380
v 0.29032111 -0.24889706 -0.14717646
v 0.19239978 -0.24404010 -0.25763559
v -0.05915516 -0.02483586 0.06195868
v 0.06563422 -0.24922982 -0.32794255
v -0.05911179 -0.25383356 -0.35779339
v -0.20915088 -0.01504239 -0.01075774
v 0.35776415 -0.25383356 -0.00570125
v 0.01822311 -0.01504238 0.25651380
v -0.36029565 -0.01504239 -0.04135132
v -0.49999136 -0.25383356 -0.39999992
v -0.49999124 -0.01504239 -0.02963036
v 0.35776415 -0.25383356 -0.00570125
vn 0.38618121 0.92175055 -0.03488266
vn 0.40763572 0.91018403 -0.07327494
vn 0.54329050 0.83858758 -0.03955199
vn 0.39698476 0.91311383 -0.09268472
vn 0.43140966 0.87295145 -0.22766808
vn 0.31159398 0.88415176 -0.34803307
vn 0.27445295 0.91586047 -0.29291666
vn 0.19891964 0.86816001 -0.45460373
vn 0.13858455 0.84890288 -0.50999480
vn 0.11700796 0.91271704 -0.39139989
vn 0.49534592 0.85897398 -0.12949003
vn 0.39698476 0.91311383 -0.09268472
vn 0.01791437 0.91128272 -0.41132846
vn 0.04470962 0.83031708 -0.55546737
vn -0.03176977 0.92269659 -0.38416699
vn 0.49534592 0.85897398 -0.12949003
vt 0.37500000 0.58983231
vt 0.37500000 0.62500000
vt 0.37500000 0.59213966
vt 0.37499997 0.53926158
vt 0.37500000 0.53125000
vt 0.37500000 0.53125000
vt 0.37499997 0.53926158
vt 0.37500000 0.53125000
vt 0.37500000 0.53125000
vt 0.37499997 0.53926158
vt 0.37500000 0.59213966
vt 0.37500000 0.58983231
vt 0.37499997 0.53926158
vt 0.37500000 0.53125000
vt 0.37499997 0.53926158
vt 0.37500000 0.53125000
f 1/1/1 2/2/2 3/3/3
f 4/4/4 5/5/5 6/6/6
f 4/4/4 6/6/6 7/7/7
f 7/7/7 8/8/8 9/9/9
f 7/7/7 9/9/9 10/10/10
f 1/1/1 3/3/3 11/11/11
f 1/1/1 11/11/11 12/12/12
f 13/13/13 14/14/14 15/15/15
f 10/10/10 9/9/9 14/14/14
f 10/10/10 14/14/14 13/13/13
f 5/5/5 4/4/4 16/16/16
f 8/8/8 7/7/7 6/6/6

