# https://github.com/mikedh/trimesh
mtllib material.mtl
usemtl material_0
v -0.50000000 0.00000000 0.13452725
v -0.50000006 0.00000000 0.49999991
v -0.20378371 0.00000000 0.12653096
v -0.04106862 0.00000000 0.18577476
v -0.03408636 0.00000000 0.50000000
v 0.00000009 0.03408647 0.49999994
vn -0.02230903 0.92757958 -0.37290567
vn 0.00000000 1.00000000 -0.00000000
vn 0.07312235 0.92492449 -0.37296671
vn -0.57356489 0.68062377 -0.45573291
vn -0.38724938 0.92190313 0.00857570
vn -0.93343914 0.34867397 0.08417005
vt 0.65863186 0.50000000
vt 0.87500000 0.50000000
vt 0.65863186 0.53601968
vt 0.65863186 0.56635213
vt 0.87500000 0.62500000
vt 0.87500000 0.62500000
f 1/1/1 2/2/2 3/3/3
f 4/4/4 2/2/2 5/5/5
f 3/3/3 2/2/2 4/4/4
f 4/4/4 5/5/5 6/6/6

