# https://github.com/mikedh/trimesh
mtllib material.mtl
usemtl material_0
v -0.50000000 0.00000000 -0.49999136
v -0.02397576 0.00000000 -0.37335420
v -0.03322995 0.00000000 -0.49999136
v 0.03888464 -0.01504236 -0.37335420
v 0.02963042 -0.01504236 -0.49999136
v -0.08067098 0.00000000 -0.21292406
v -0.02397576 0.00000000 -0.37335420
v -0.50000000 0.00000000 -0.49999136
v -0.01781061 -0.01504239 -0.21292406
v -0.01434237 -0.01504239 -0.07936037
v -0.07361907 0.00000000 -0.04342330
v -0.50000000 0.00000000 0.50000864
v 0.50000000 0.00000000 0.50000000
v 0.50000000 0.00000000 0.03323013
v 0.31779951 0.00000000 0.04665360
v 0.11348462 0.00000000 0.06795344
v -0.07361907 0.00000000 -0.04342330
v 0.11348462 0.00000000 0.06795344
v 0.14476043 -0.01504237 0.00662214
v 0.35708737 -0.01504236 -0.01691258
v 0.50000882 -0.01504236 -0.02963036
vn 0.00000000 1.00000000 -0.00000000
vn 0.13220619 0.99099702 0.02053896
vn 0.11178930 0.99368268 -0.00814844
vn 0.38282418 0.92303234 0.03787347
vn 0.38608965 0.92202520 -0.02819910
vn 0.10409863 0.99444562 0.01425214
vn 0.13220619 0.99099702 0.02053896
vn 0.00000000 1.00000000 -0.00000000
vn 0.32441175 0.94485307 0.04428236
vn 0.22254097 0.96563613 -0.13397625
vn 0.06042665 0.99752802 -0.03576769
vn 0.00000000 1.00000000 -0.00000000
vn 0.00000000 1.00000000 -0.00000000
vn -0.01004059 0.99209571 -0.12488174
vn -0.01239051 0.99212623 -0.12457655
vn 0.02270577 0.99588001 -0.08752708
vn 0.06042665 0.99752802 -0.03576769
vn 0.02270577 0.99588001 -0.08752708
vn 0.06707969 0.94827116 -0.31025118
vn -0.03915525 0.91644031 -0.39817500
vn -0.03482162 0.91470075 -0.40256965
vt 0.37500000 0.53125000
vt 0.37500000 0.52322984
vt 0.37500000 0.50000000
vt 0.37500000 0.52322984
vt 0.37500000 0.50000000
vt 0.37500000 0.53926158
vt 0.37499997 0.52324885
vt 0.37500000 0.53125000
vt 0.37500000 0.53926158
vt 0.37500000 0.54382831
vt 0.37500000 0.54926932
vt 0.37500000 0.56250000
vt 0.37500000 0.56250000
vt 0.37500000 0.56250000
vt 0.37500000 0.56250000
vt 0.37500000 0.56250006
vt 0.37500000 0.56250000
vt 0.37500000 0.56250000
vt 0.37500000 0.56250000
vt 0.37500000 0.56250000
vt 0.37500000 0.56250000
f 1/1/1 2/2/2 3/3/3
f 2/2/2 4/4/4 5/5/5
f 2/2/2 5/5/5 3/3/3
f 6/6/6 7/7/7 8/8/8
f 6/6/6 9/9/9 4/4/4
f 6/6/6 4/4/4 2/2/2
f 10/10/10 9/9/9 6/6/6
f 11/11/11 10/10/10 6/6/6
f 6/6/6 8/8/8 12/12/12
f 11/11/11 6/6/6 12/12/12
f 13/13/13 14/14/14 15/15/15
f 13/13/13 15/15/15 12/12/12
f 15/15/15 16/16/16 12/12/12
f 16/16/16 17/17/17 12/12/12
f 18/18/18 19/19/19 10/10/10
f 18/18/18 10/10/10 11/11/11
f 15/15/15 20/20/20 19/19/19
f 15/15/15 19/19/19 18/18/18
f 14/14/14 21/21/21 20/20/20
f 14/14/14 20/20/20 15/15/15

