# https://github.com/mikedh/trimesh
mtllib material.mtl
usemtl material_0
v -0.50000000 -0.01504236 -0.02963045
v -0.26494947 -0.01504236 -0.01434619
v -0.49999997 -0.25383356 -0.40000015
v 0.50000870 -0.25383356 -0.40000007
v 0.38506472 -0.01504236 0.00768182
v 0.50000864 -0.01504236 -0.02963039
v -0.11105672 -0.01504236 -0.03408647
vn 0.05600147 0.51121557 -0.85760063
vn -0.02548296 0.51081884 -0.85927916
vn 0.00848415 0.84911650 -0.52809227
vn -0.01419111 0.84725487 -0.53099155
vn -0.08349864 0.48048341 -0.87298197
vn -0.23007904 0.52226323 -0.82113099
vn -0.01248207 0.53755301 -0.84310436
vt 0.37500000 0.50000000
vt 0.37500000 0.52938128
vt 0.37500000 0.50000000
vt 0.37500000 0.62500000
vt 0.37500003 0.61063308
vt 0.37500000 0.62500000
vt 0.37500000 0.54861790
f 1/1/1 2/2/2 3/3/3
f 4/4/4 5/5/5 6/6/6
f 5/5/5 4/4/4 3/3/3
f 5/5/5 3/3/3 7/7/7
f 3/3/3 2/2/2 7/7/7

