# https://github.com/mikedh/trimesh
mtllib material.mtl
usemtl material_0
v 0.50000000 0.03408647 -0.00000012
v 0.50000000 0.00000000 -0.03408659
v 0.15035266 0.00000000 -0.03408659
v 0.11571549 0.03408647 -0.00000012
v 0.00000000 0.03408647 -0.11571562
v 0.03408648 0.00000000 -0.15035272
v 0.03408648 0.00000000 -0.50000000
v 0.00000000 0.03408647 -0.50000000
v 0.50000000 0.00000000 -0.50000000
v 0.03408648 0.00000000 -0.15035272
vn 0.00000000 0.38267159 -0.92385632
vn 0.00000000 0.92385632 -0.38267159
vn 0.11209448 0.91567737 -0.38590655
vn 0.36619160 0.41044343 -0.83510852
vn 0.83510852 0.41044343 -0.36619160
vn 0.38590655 0.91567737 -0.11209448
vn 0.38267159 0.92385632 -0.00000000
vn 0.92385632 0.38267159 -0.00000000
vn 0.00000000 1.00000000 -0.00000000
vn 0.38590655 0.91567737 -0.11209448
vt 0.38352162 0.62500000
vt 0.37500000 0.62500000
vt 0.37500000 0.62500000
vt 0.38352162 0.62500000
vt 0.38352162 0.59607112
vt 0.37500000 0.59380692
vt 0.37500000 0.50000000
vt 0.38352162 0.50000000
vt 0.37500000 0.50000000
vt 0.37500000 0.59380698
f 1/1/1 2/2/2 3/3/3
f 1/1/1 3/3/3 4/4/4
f 5/5/5 6/6/6 7/7/7
f 5/5/5 7/7/7 8/8/8
f 2/2/2 9/9/9 7/7/7
f 2/2/2 7/7/7 10/10/10
f 2/2/2 10/10/10 3/3/3
f 4/4/4 3/3/3 6/6/6
f 4/4/4 6/6/6 5/5/5

