# https://github.com/mikedh/trimesh
mtllib material.mtl
usemtl material_0
v 0.03408647 0.00000000 0.50000000
v 0.03088777 -0.01504236 0.12725279
v 0.00000000 0.03408647 0.15487921
v 0.00000000 0.03408647 0.50000000
v -0.15487921 -0.00550713 -0.00000000
v 0.50000000 -0.00000001 0.50000864
v 0.50000000 0.00000000 0.03322998
v 0.28812233 0.00000000 0.03337938
v 0.50000000 -0.00000001 0.50000864
v 0.15891393 0.00000000 0.06223828
v 0.03088777 -0.01504236 0.12725279
v 0.15220208 -0.01504237 -0.01344752
v 0.00000864 -0.01504236 0.01557171
v 0.15891393 0.00000000 0.06223828
v 0.50000000 -0.00000001 0.50000864
v 0.28393361 -0.01504236 -0.02525962
v 0.50000000 -0.01504239 -0.02963039
v 0.03408647 0.00000000 0.50000000
v -0.15487921 -0.00550713 -0.00000000
vn 0.43839839 0.89822078 -0.03149510
vn 0.22797327 0.96044803 -0.15970336
vn 0.85384685 0.36805323 -0.36802271
vn 0.94482255 0.32740256 -0.00869778
vn 0.22321238 0.59550768 -0.77169102
vn -0.01269570 0.99987793 -0.00732444
vn -0.00125126 0.99261451 -0.12106693
vn -0.00991852 0.99240088 -0.12253182
vn -0.01269570 0.99987793 -0.00732444
vn -0.05475020 0.99716181 -0.05157628
vn 0.22797327 0.96044803 -0.15970336
vn -0.07821894 0.92098761 -0.38157293
vn -0.00418104 0.96191287 -0.27323222
vn -0.05475020 0.99716181 -0.05157628
vn -0.01269570 0.99987793 -0.00732444
vn -0.02801599 0.91631824 -0.39945677
vn -0.00686666 0.91723382 -0.39820552
vn 0.43839839 0.89822078 -0.03149510
vn 0.22321238 0.59550768 -0.77169102
vt 0.59136820 0.50000000
vt 0.59136820 0.50000000
vt 0.59136820 0.50000000
vt 0.59136820 0.50000000
vt 0.59136820 0.50000000
vt 0.37500000 0.62500000
vt 0.37500000 0.62500000
vt 0.37500000 0.59766662
vt 0.37500000 0.59375000
vt 0.37500000 0.58983225
vt 0.37500000 0.56250000
vt 0.37500000 0.58983225
vt 0.37500000 0.56250000
vt 0.37500000 0.59375000
vt 0.37500000 0.59569681
vt 0.37500000 0.59766656
vt 0.37500000 0.62500000
vt 0.37500000 0.59375000
vt 0.37500000 0.56250000
f 1/1/1 2/2/2 3/3/3
f 4/4/4 1/1/1 3/3/3
f 5/5/5 3/3/3 2/2/2
f 6/6/6 7/7/7 8/8/8
f 9/9/9 10/10/10 11/11/11
f 12/12/12 13/13/13 11/11/11
f 10/10/10 12/12/12 11/11/11
f 8/8/8 14/14/14 15/15/15
f 16/16/16 12/12/12 10/10/10
f 8/8/8 16/16/16 10/10/10
f 7/7/7 17/17/17 16/16/16
f 7/7/7 16/16/16 8/8/8
f 9/9/9 11/11/11 18/18/18
f 11/11/11 13/13/13 19/19/19

