# https://github.com/mikedh/trimesh
mtllib material.mtl
usemtl material_0
v 0.00000000 0.50000000 -0.11534852
v 0.00000000 0.03408647 -0.11571562
v 0.00000000 0.03408647 -0.50000000
v 0.00000000 0.50000000 -0.50000000
v 0.50000000 0.50000000 -0.00000012
v 0.50000000 0.03408647 -0.00000012
v 0.11571549 0.03408647 -0.00000012
v 0.11534839 0.50000000 -0.00000012
vn 0.92379528 0.00027467 -0.38282418
vn 0.83510852 0.41044343 -0.36619160
vn 0.92385632 0.38267159 -0.00000000
vn 1.00000000 0.00000000 -0.00000000
vn 0.00000000 0.00000000 -1.00000000
vn 0.00000000 0.38267159 -0.92385632
vn 0.36619160 0.41044343 -0.83510852
vn 0.38282418 0.00027467 -0.92379528
vt 0.50000000 0.59616292
vt 0.38352162 0.59607112
vt 0.38352162 0.50000000
vt 0.50000000 0.50000000
vt 0.50000000 0.62500000
vt 0.38352162 0.62500000
vt 0.38352162 0.62500000
vt 0.50000000 0.62500000
f 1/1/1 2/2/2 3/3/3
f 1/1/1 3/3/3 4/4/4
f 5/5/5 6/6/6 7/7/7
f 5/5/5 7/7/7 8/8/8
f 8/8/8 7/7/7 2/2/2
f 8/8/8 2/2/2 1/1/1

