# https://github.com/mikedh/trimesh
mtllib material.mtl
usemtl material_0
v 0.00000000 0.50000000 0.50000000
v 0.00000000 0.03408647 0.50000000
v 0.00000000 0.03408647 0.15487921
v 0.00000000 0.50000000 0.15487921
v -0.15487921 0.50000000 -0.00000000
v -0.15487921 0.03408647 -0.00000000
v -0.50000000 0.03408647 -0.00000000
v -0.50000000 0.50000000 -0.00000000
vn 1.00000000 0.00000000 -0.00000000
vn 0.92385632 0.38267159 -0.00000000
vn 0.82564777 0.47901851 -0.29801324
vn 0.92385632 0.00000000 -0.38267159
vn 0.38267159 0.00000000 -0.92385632
vn 0.29801324 0.47901851 -0.82564777
vn 0.00000000 0.38267159 -0.92385632
vn 0.00000000 0.00000000 -1.00000000
vt 0.59136820 0.50000000
vt 0.59136820 0.50000000
vt 0.59136820 0.50000000
vt 0.59136820 0.50000000
vt 0.59136820 0.50000000
vt 0.59136820 0.50000000
vt 0.59136820 0.50000000
vt 0.59136820 0.50000000
f 1/1/1 2/2/2 3/3/3
f 1/1/1 3/3/3 4/4/4
f 5/5/5 6/6/6 7/7/7
f 5/5/5 7/7/7 8/8/8
f 4/4/4 3/3/3 6/6/6
f 4/4/4 6/6/6 5/5/5

