# https://github.com/mikedh/trimesh
mtllib material.mtl
usemtl material_0
v 0.50000000 -0.13452733 -0.00000012
v 0.50000000 -0.50000000 -0.00000012
v 0.11534839 -0.50000000 -0.00000012
v 0.11571549 -0.13452733 -0.00000012
v 0.00000000 -0.13452733 -0.11571562
v 0.00000000 -0.13452733 -0.50000000
v -0.13452733 0.00000000 -0.50000000
v -0.13452731 0.00000000 0.01826108
v 0.50000000 0.00000000 0.13452721
v -0.01826117 0.00000000 0.13452721
v 0.00000000 -0.50000000 -0.11534852
v 0.00000000 -0.50000000 -0.50000000
vn 0.00000000 0.38267159 -0.92385632
vn 0.00000000 0.00000000 -1.00000000
vn 0.38288522 -0.00036622 -0.92376477
vn 0.29728079 0.47929320 -0.82573932
vn 0.82573932 0.47929320 -0.29728079
vn 0.92385632 0.38267159 -0.00000000
vn 0.38267159 0.92385632 -0.00000000
vn 0.21738334 0.97030550 -0.10577715
vn 0.00000000 0.92385632 -0.38267159
vn 0.10577715 0.97030550 -0.21738334
vn 0.92376477 -0.00036622 -0.38288522
vn 1.00000000 0.00000000 -0.00000000
vt 0.59136820 0.62500000
vt 0.50000000 0.62500000
vt 0.50000000 0.62500000
vt 0.59136820 0.62500000
vt 0.59136820 0.59607112
vt 0.59136820 0.50000000
vt 0.65863186 0.50000000
vt 0.65863186 0.60209596
vt 0.65863186 0.62500000
vt 0.65863186 0.62500000
vt 0.50000000 0.59616286
vt 0.50000000 0.50000000
f 1/1/1 2/2/2 3/3/3
f 1/1/1 3/3/3 4/4/4
f 5/5/5 6/6/6 7/7/7
f 8/8/8 5/5/5 7/7/7
f 9/9/9 1/1/1 4/4/4
f 9/9/9 4/4/4 10/10/10
f 4/4/4 3/3/3 11/11/11
f 4/4/4 11/11/11 5/5/5
f 4/4/4 5/5/5 8/8/8
f 10/10/10 4/4/4 8/8/8
f 5/5/5 11/11/11 12/12/12
f 5/5/5 12/12/12 6/6/6

