# https://github.com/mikedh/trimesh
mtllib material.mtl
usemtl material_0
v -0.13452724 0.00000000 0.50000000
v -0.12653095 0.00000000 0.20378371
v -0.49999988 0.00000000 0.50000006
v -0.18577476 0.00000000 0.04106863
v -0.50000000 0.00000000 0.03408638
v -0.49999994 0.03408647 -0.00000007
vn 0.37290567 0.92757958 0.02230903
vn 0.37296671 0.92492449 -0.07312235
vn 0.00000000 1.00000000 -0.00000000
vn 0.45573291 0.68062377 0.57356489
vn -0.00857570 0.92190313 0.38724938
vn -0.08417005 0.34867397 0.93343914
vt 0.65863186 0.50000000
vt 0.65863186 0.53601968
vt 0.87500000 0.50000000
vt 0.65863186 0.56635213
vt 0.87500000 0.62500000
vt 0.87500000 0.62500000
f 1/1/1 2/2/2 3/3/3
f 4/4/4 5/5/5 3/3/3
f 2/2/2 4/4/4 3/3/3
f 4/4/4 6/6/6 5/5/5

