# https://github.com/mikedh/trimesh
mtllib material.mtl
usemtl material_0
v 0.00000009 -0.13452733 0.50000000
v 0.00000006 -0.50000000 0.50000000
v 0.00000007 -0.13452733 0.39095902
v -0.13452724 0.00000000 0.50000000
v -0.04374730 -0.06628573 0.24930245
v -0.12653095 0.00000000 0.20378371
v 0.01891780 -0.13452733 0.23769963
v -0.04594423 -0.50000000 0.28368527
v -0.00000003 -0.50000000 -0.00308752
v -0.04486055 -0.13452733 -0.03765009
v 0.00000006 -0.50000000 0.50000000
v -0.18577476 0.00000000 0.04106863
v -0.49999997 0.50000000 -0.00000009
v -0.49999994 0.03408647 -0.00000007
v 0.00000004 0.49999997 -0.15487915
v -0.15487920 0.50000000 0.00000006
v -0.04594420 -0.16235276 -0.28368533
v -0.01974029 -0.50000000 -0.20007372
v -0.00000001 -0.13452737 -0.50000000
v -0.00000007 0.50000000 -0.49999994
v 0.00000002 -0.50000000 -0.50000006
vn 0.92385632 0.38267159 -0.00000000
vn 0.99462873 -0.08447523 -0.05926695
vn 0.93926817 0.34290597 0.01095614
vn 0.37290567 0.92757958 0.02230903
vn 0.69042021 0.72222054 -0.04049806
vn 0.37296671 0.92492449 -0.07312235
vn 0.94543290 0.32160404 -0.05197302
vn 0.99609363 -0.06991790 -0.05371258
vn 0.99874872 0.02694784 -0.04156621
vn 0.98300117 0.17078158 0.06698813
vn 0.99462873 -0.08447523 -0.05926695
vn 0.45573291 0.68062377 0.57356489
vn -0.04657125 0.05264443 0.99749750
vn -0.08417005 0.34867397 0.93343914
vn 0.91238135 0.00155644 0.40931424
vn 0.35538805 0.07739494 0.93148595
vn 0.99871820 0.01184118 0.04892117
vn 0.99685657 0.07528916 0.02429273
vn 0.99475080 0.00070193 0.10223701
vn 0.99591053 -0.04315317 0.07934812
vn 0.99026459 0.05221717 0.12878811
vt 0.59136820 0.50000000
vt 0.51110703 0.50000000
vt 0.59136820 0.51363015
vt 0.65863186 0.50000000
vt 0.62548900 0.53452462
vt 0.65863186 0.53601968
vt 0.59136820 0.53278756
vt 0.46662003 0.54358554
vt 0.42663872 0.58275670
vt 0.59136820 0.57006800
vt 0.49735492 0.51347345
vt 0.65863186 0.56635213
vt 0.87500000 0.62500000
vt 0.87500000 0.62500000
vt 0.59136820 0.57006800
vt 0.65863186 0.56635213
vt 0.59136820 0.57006800
vt 0.42663872 0.58275670
vt 0.59136820 0.57006800
vt 0.59136820 0.57006800
vt 0.42663872 0.58275670
f 1/1/1 2/2/2 3/3/3
f 4/4/4 5/5/5 6/6/6
f 7/7/7 8/8/8 9/9/9
f 7/7/7 9/9/9 10/10/10
f 7/7/7 4/4/4 3/3/3
f 11/11/11 8/8/8 7/7/7
f 3/3/3 11/11/11 7/7/7
f 4/4/4 1/1/1 3/3/3
f 7/7/7 5/5/5 4/4/4
f 5/5/5 10/10/10 12/12/12
f 6/6/6 5/5/5 12/12/12
f 5/5/5 7/7/7 10/10/10
f 12/12/12 13/13/13 14/14/14
f 12/12/12 10/10/10 15/15/15
f 16/16/16 12/12/12 15/15/15
f 12/12/12 16/16/16 13/13/13
f 10/10/10 17/17/17 15/15/15
f 10/10/10 9/9/9 18/18/18
f 10/10/10 18/18/18 17/17/17
f 15/15/15 17/17/17 19/19/19
f 15/15/15 19/19/19 20/20/20
f 17/17/17 18/18/18 21/21/21
f 17/17/17 21/21/21 19/19/19

